<mxfile host="app.diagrams.net" modified="2023-11-30T14:08:14.786Z" agent="Mozilla/5.0 (Windows NT 10.0; Win64; x64; rv:120.0) Gecko/20100101 Firefox/120.0" etag="vRy4BNcr5NfcMjcIoVEd" version="22.1.5" type="device">
  <diagram name="Strona-1" id="W7tZtxHu2SPoAUWL8Mqt">
    <mxGraphModel dx="1050" dy="530" grid="1" gridSize="10" guides="1" tooltips="1" connect="1" arrows="1" fold="1" page="1" pageScale="1" pageWidth="827" pageHeight="1169" math="0" shadow="0">
      <root>
        <mxCell id="0" />
        <mxCell id="1" parent="0" />
        <mxCell id="tMPbjfsEoINHgUjTxAiA-1" value="Book" style="swimlane;fontStyle=1;align=center;verticalAlign=top;childLayout=stackLayout;horizontal=1;startSize=26;horizontalStack=0;resizeParent=1;resizeParentMax=0;resizeLast=0;collapsible=1;marginBottom=0;whiteSpace=wrap;html=1;" vertex="1" parent="1">
          <mxGeometry x="340" y="110" width="160" height="260" as="geometry" />
        </mxCell>
        <mxCell id="tMPbjfsEoINHgUjTxAiA-2" value="&lt;div&gt;- &lt;u&gt;publisher&lt;/u&gt;: String&lt;/div&gt;&lt;div&gt;- &lt;u&gt;genreTypes&lt;/u&gt;: String[]&lt;br&gt;&lt;/div&gt;&lt;div&gt;- title: String&lt;/div&gt;&lt;div&gt;- author: String&lt;/div&gt;&lt;div&gt;- genre: int&lt;br&gt;&lt;/div&gt;&lt;div&gt;- yearPub: int&lt;/div&gt;&lt;div&gt;- pages: int&lt;/div&gt;&lt;div&gt;- bookFormat: String&lt;/div&gt;&lt;div&gt;- price: float&lt;br&gt;&lt;/div&gt;" style="text;strokeColor=none;fillColor=none;align=left;verticalAlign=top;spacingLeft=4;spacingRight=4;overflow=hidden;rotatable=0;points=[[0,0.5],[1,0.5]];portConstraint=eastwest;whiteSpace=wrap;html=1;" vertex="1" parent="tMPbjfsEoINHgUjTxAiA-1">
          <mxGeometry y="26" width="160" height="144" as="geometry" />
        </mxCell>
        <mxCell id="tMPbjfsEoINHgUjTxAiA-3" value="" style="line;strokeWidth=1;fillColor=none;align=left;verticalAlign=middle;spacingTop=-1;spacingLeft=3;spacingRight=3;rotatable=0;labelPosition=right;points=[];portConstraint=eastwest;strokeColor=inherit;" vertex="1" parent="tMPbjfsEoINHgUjTxAiA-1">
          <mxGeometry y="170" width="160" height="8" as="geometry" />
        </mxCell>
        <mxCell id="tMPbjfsEoINHgUjTxAiA-4" value="&lt;div&gt;+ &lt;u&gt;displayGenres()&lt;/u&gt;&lt;br&gt;&lt;/div&gt;&lt;div&gt;+ Book(...)&lt;br&gt;&lt;/div&gt;&lt;div&gt;+ displayBook()&lt;/div&gt;&lt;div&gt;+ setPrice(float)&lt;/div&gt;" style="text;strokeColor=none;fillColor=none;align=left;verticalAlign=top;spacingLeft=4;spacingRight=4;overflow=hidden;rotatable=0;points=[[0,0.5],[1,0.5]];portConstraint=eastwest;whiteSpace=wrap;html=1;" vertex="1" parent="tMPbjfsEoINHgUjTxAiA-1">
          <mxGeometry y="178" width="160" height="82" as="geometry" />
        </mxCell>
      </root>
    </mxGraphModel>
  </diagram>
</mxfile>
